<?xml version="1.0" encoding="UTF-8"?>
<svg version="1.1" xmlns="http://www.w3.org/2000/svg" width="500" height="500">
<path d="M0 0 C9.19275459 8.38514254 16.66513819 17.68339067 23.390625 28.13671875 C23.99519531 29.04421875 24.59976563 29.95171875 25.22265625 30.88671875 C42.63935343 58.5647206 48.20443755 95.91514498 41.4921875 127.74609375 C32.67738097 164.58962546 11.53305679 195.56455586 -20.56689453 215.88623047 C-31.75495413 222.73600829 -48.2906714 232.13671875 -61.609375 232.13671875 C-61.609375 228.83671875 -61.609375 225.53671875 -61.609375 222.13671875 C-60.46082031 221.71003906 -59.31226563 221.28335937 -58.12890625 220.84375 C-32.1385129 211.0866351 -9.73366867 198.61636269 7.390625 176.13671875 C7.99648438 175.34652344 8.60234375 174.55632812 9.2265625 173.7421875 C28.9077124 146.89211196 36.59024489 113.17840031 31.63671875 80.27734375 C30.77701906 75.50413193 29.66631404 70.81462492 28.390625 66.13671875 C27.9575 64.50669922 27.9575 64.50669922 27.515625 62.84375 C17.9808186 31.3022699 -3.99480794 5.93679036 -32.609375 -9.86328125 C-40.22012913 -13.93267027 -47.96649682 -17.19073079 -56.234375 -19.67578125 C-56.87793945 -19.87067139 -57.52150391 -20.06556152 -58.18457031 -20.26635742 C-69.08107921 -23.33997486 -80.07855535 -24.23062619 -91.359375 -24.17578125 C-92.5851123 -24.1701416 -93.81084961 -24.16450195 -95.07373047 -24.15869141 C-104.54263124 -24.03247272 -113.46023694 -23.32599172 -122.609375 -20.86328125 C-123.31642578 -20.67523926 -124.02347656 -20.48719727 -124.75195312 -20.29345703 C-142.54557543 -15.36689685 -158.5674327 -6.81025635 -172.609375 5.13671875 C-173.5271875 5.88050781 -174.445 6.62429687 -175.390625 7.390625 C-194.11524163 23.29040723 -206.21627272 45.67890902 -212.609375 69.13671875 C-212.94839844 70.34585938 -213.28742188 71.555 -213.63671875 72.80078125 C-217.91382135 91.21006158 -217.56896145 112.86098237 -212.609375 131.13671875 C-212.32731201 132.19511963 -212.32731201 132.19511963 -212.03955078 133.27490234 C-207.11347152 151.07070656 -198.55773875 167.09314429 -186.609375 181.13671875 C-185.86558594 182.05453125 -185.12179688 182.97234375 -184.35546875 183.91796875 C-165.04433511 206.66001446 -135.17742721 221.25511087 -105.609375 224.13671875 C-97.61862518 224.69129781 -89.61630236 224.95370905 -81.609375 225.13671875 C-77.50278766 196.75726693 -76.3963513 166.30616443 -93.82421875 142.0546875 C-102.48845551 131.74698487 -114.16469455 125.51747473 -125.67163086 118.90600586 C-144.49025945 108.09217647 -144.49025945 108.09217647 -151.609375 101.13671875 C-152.24101562 100.52054688 -152.87265625 99.904375 -153.5234375 99.26953125 C-167.83071544 84.07986613 -174.81801176 64.37551951 -174.921875 43.82421875 C-174.92743408 42.89303223 -174.93299316 41.9618457 -174.9387207 41.00244141 C-174.8799817 35.39060758 -174.19415171 30.52243403 -172.609375 25.13671875 C-171.07758783 26.60634644 -169.68320346 28.03608788 -168.42578125 29.75 C-158.08610111 43.76171608 -134.60161553 46.8556496 -118.43798828 50.54077148 C-101.44568958 54.4406766 -85.28841173 60.65706415 -74.609375 75.13671875 C-69.60494702 83.32924679 -67.21970844 91.53515615 -67.296875 101.13671875 C-67.30106445 101.86802002 -67.30525391 102.59932129 -67.30957031 103.3527832 C-67.56533558 116.01452459 -70.90510125 128.10252993 -74.609375 140.13671875 C-75.269375 140.13671875 -75.929375 140.13671875 -76.609375 140.13671875 C-76.89022949 139.5132959 -77.17108398 138.88987305 -77.46044922 138.24755859 C-86.30285778 118.77991103 -96.2727949 100.39593441 -113.609375 87.13671875 C-113.09890625 87.81154297 -113.09890625 87.81154297 -112.578125 88.5 C-111.53031895 89.89057239 -110.48647728 91.28413564 -109.4453125 92.6796875 C-108.20887921 94.33440355 -106.96388943 95.98275643 -105.7109375 97.625 C-89.14663814 119.7216444 -78.28490256 146.4534128 -71.609375 173.13671875 C-71.44421387 173.7930127 -71.27905273 174.44930664 -71.10888672 175.12548828 C-68.60074727 185.66382394 -68.32577219 196.2214111 -68.296875 207.01171875 C-68.29131592 208.31898926 -68.28575684 209.62625977 -68.2800293 210.97314453 C-68.33880615 218.88139468 -69.03005011 226.38564169 -70.609375 234.13671875 C-104.74598698 240.33428813 -141.33166787 230.99306918 -169.66894531 211.53857422 C-175.31276656 207.46121871 -180.49654048 202.85215597 -185.609375 198.13671875 C-186.36734375 197.44964844 -187.1253125 196.76257813 -187.90625 196.0546875 C-204.4495034 180.33859677 -216.12137405 158.88080574 -222.359375 137.13671875 C-222.55829346 136.449729 -222.75721191 135.76273926 -222.9621582 135.05493164 C-226.08865378 123.48649561 -226.97723999 111.76620606 -226.921875 99.82421875 C-226.91696045 98.55747314 -226.9120459 97.29072754 -226.90698242 95.9855957 C-226.48169324 61.88176526 -212.55506088 31.01617094 -189.609375 6.13671875 C-188.92230469 5.37875 -188.23523438 4.62078125 -187.52734375 3.83984375 C-137.76049139 -48.54631663 -52.32548136 -46.52040785 0 0 Z " fill="#84C938" transform="translate(341.609375,149.86328125)"/>
<path d="M0 0 C0.66 0 1.32 0 2 0 C6.22092146 14.77322512 4.95208013 30.89513033 -2.37109375 44.4921875 C-12.71751843 60.42121542 -29.14554497 67.93187549 -46.3125 74.375 C-54.41796545 77.68290617 -60.77694038 83.33642855 -65 91 C-65.66 90.67 -66.32 90.34 -67 90 C-60.88542949 74.21676486 -53.53641872 60.31686255 -43 47 C-56.49156879 55.99437919 -64.45591828 70.70528592 -69 86 C-69.66 86 -70.32 86 -71 86 C-71.64779076 83.60468067 -72.29329009 81.20878252 -72.9375 78.8125 C-73.11990234 78.13896484 -73.30230469 77.46542969 -73.49023438 76.77148438 C-76.49848906 65.55889873 -78.93567103 50.70955591 -73 40 C-63.50143583 24.68388704 -47.08157189 20.48267968 -30.4375 16.5625 C-29.30892578 16.30146484 -28.18035156 16.04042969 -27.01757812 15.77148438 C-17.62985712 13.47718798 -7.52125841 10.5571995 -1 3 C-0.67 2.01 -0.34 1.02 0 0 Z " fill="#84CA37" transform="translate(352,200)"/>
<path d="M0 0 C4.51463466 0.78939584 8.81193033 2.10504787 13.1875 3.4375 C19.42000248 5.30838867 25.58160516 6.87932789 32 8 C32 8.33 32 8.66 32 9 C30.35 9.33 28.7 9.66 27 10 C27.26676204 11.98491642 27.26676204 11.98491642 28 14 C28.99 14.33 29.98 14.66 31 15 C31 15.33 31 15.66 31 16 C32.55460937 16.07347656 32.55460937 16.07347656 34.140625 16.1484375 C35.51044208 16.22349597 36.88023248 16.29904247 38.25 16.375 C38.93191406 16.4059375 39.61382812 16.436875 40.31640625 16.46875 C43.98739038 16.68259374 46.86251616 17.01077055 50 19 C36.30009485 19.54557144 23.13887694 17.97623907 10 14 C13.38018531 12.95994298 16.4780279 12.91995518 20 13 C20.33 11.02 20.66 9.04 21 7 C19.948125 7.226875 18.89625 7.45375 17.8125 7.6875 C13.37756306 8.05101942 12.58989027 7.39326018 9 5 C6.03641218 3.88175959 3.02739261 2.92998335 0 2 C0 1.34 0 0.68 0 0 Z " fill="#87C245" transform="translate(201,366)"/>
<path d="M0 0 C5.96367543 -0.35782053 9.69210489 0.014309 15 3 C17.27513579 3.82732211 19.57009382 4.5649372 21.875 5.3046875 C24.2966311 6.09705944 26.65063882 7.01478402 29 8 C29 7.01 29 6.02 29 5 C28.34 4.67 27.68 4.34 27 4 C28.32 4 29.64 4 31 4 C31 3.01 31 2.02 31 1 C35.50802601 2.25805377 38.4912812 3.90407165 42 7 C41.01 7.33 40.02 7.66 39 8 C39 7.34 39 6.68 39 6 C37.02 6.66 35.04 7.32 33 8 C33.495 9.485 33.495 9.485 34 11 C34.66 11.33 35.32 11.66 36 12 C36 12.66 36 13.32 36 14 C32.02896653 12.76211611 28.27312467 11.26915778 24.4921875 9.53735352 C16.4776377 5.86696472 8.56529167 3.15470619 0 1 C0 0.67 0 0.34 0 0 Z " fill="#89C444" transform="translate(277,127)"/>
<path d="M0 0 C-0.185625 0.78375 -0.37125 1.5675 -0.5625 2.375 C-1.25962266 4.97089775 -1.25962266 4.97089775 0 7 C-0.66 7 -1.32 7 -2 7 C-2 7.66 -2 8.32 -2 9 C-3.65 9.66 -5.3 10.32 -7 11 C-7 11.99 -7 12.98 -7 14 C-9.31 13.34 -11.62 12.68 -14 12 C-14 10.35 -14 8.7 -14 7 C-12.35 7 -10.7 7 -9 7 C-9.66 5.68 -10.32 4.36 -11 3 C-7.13828168 1.00255949 -4.44822596 0 0 0 Z " fill="#84CB33" transform="translate(328,352)"/>
<path d="M0 0 C1.32 1.32 2.64 2.64 4 4 C4 3.34 4 2.68 4 2 C5.32 2.33 6.64 2.66 8 3 C8.33 2.01 8.66 1.02 9 0 C9.66 0 10.32 0 11 0 C9.98408579 5.46864457 8.92908943 10.76390013 7 16 C6.34 16 5.68 16 5 16 C3.96728358 13.90163996 2.94916283 11.79609109 1.9375 9.6875 C1.36902344 8.51574219 0.80054688 7.34398437 0.21484375 6.13671875 C-1 3 -1 3 0 0 Z " fill="#88C342" transform="translate(260,274)"/>
<path d="M0 0 C0.8971875 0.5259375 0.8971875 0.5259375 1.8125 1.0625 C4.10813214 2.33304698 4.10813214 2.33304698 7 1 C8.32 2.98 9.64 4.96 11 7 C11.66 6.67 12.32 6.34 13 6 C12.67 7.65 12.34 9.3 12 11 C9.125 11.625 9.125 11.625 6 12 C4.09276551 10.09276551 2.52626646 8.22002394 1 6 C1 5.34 1 4.68 1 4 C0.34 4 -0.32 4 -1 4 C-0.67 2.68 -0.34 1.36 0 0 Z " fill="#84CB34" transform="translate(330,147)"/>
<path d="M0 0 C0.66 0.33 1.32 0.66 2 1 C1.21625 1.721875 0.4325 2.44375 -0.375 3.1875 C-3.10248645 5.74844235 -3.10248645 5.74844235 -4 8.6875 C-4.33 9.450625 -4.66 10.21375 -5 11 C-5.845625 11.33 -6.69125 11.66 -7.5625 12 C-8.366875 12.33 -9.17125 12.66 -10 13 C-10.89386164 15.54775306 -10.89386164 15.54775306 -11 18 C-12.32 18.33 -13.64 18.66 -15 19 C-15 19.66 -15 20.32 -15 21 C-14.34 21.66 -13.68 22.32 -13 23 C-13 23.66 -13 24.32 -13 25 C-14.98 24.34 -16.96 23.68 -19 23 C-19 23.99 -19 24.98 -19 26 C-19.99 26.33 -20.98 26.66 -22 27 C-20.47893946 22.13443886 -17.68234955 18.93752557 -14.375 15.1875 C-13.84100586 14.57310059 -13.30701172 13.95870117 -12.75683594 13.32568359 C-8.69397132 8.68991353 -4.4770576 4.24003691 0 0 Z " fill="#87BD47" transform="translate(160,148)"/>
<path d="M0 0 C5.22365479 9.28405872 4.18057459 21.56929007 4.1875 31.875 C4.18830566 33.03974854 4.18911133 34.20449707 4.18994141 35.40454102 C4.15146698 41.35824403 3.90393733 47.11356009 3 53 C2.67 53 2.34 53 2 53 C2.01160156 51.82308594 2.02320313 50.64617187 2.03515625 49.43359375 C2.1002646 39.82320738 1.98883681 30.22921029 1.625 20.625 C1.59414307 19.65747803 1.56328613 18.68995605 1.53149414 17.69311523 C1.32224948 12.7412815 0.76654762 8.6813512 -1 4 C-0.625 1.625 -0.625 1.625 0 0 Z " fill="#8ABF49" transform="translate(381,219)"/>
<path d="M0 0 C0.66 0 1.32 0 2 0 C2.6496875 1.36125 2.6496875 1.36125 3.3125 2.75 C4.70992528 5.44133757 6.13943016 7.63200202 8 10 C8.33 10.66 8.66 11.32 9 12 C9.99 9.03 10.98 6.06 12 3 C14.63978826 6.18595135 17.10498388 9.30970546 19 13 C18.67 13.66 18.34 14.32 18 15 C17.38125 14.34 16.7625 13.68 16.125 13 C14.24362573 10.7715451 14.24362573 10.7715451 12 11 C11.67 13.64 11.34 16.28 11 19 C7.4882036 15.84559881 5.44790407 12.53598933 3.25 8.375 C2.63640625 7.22773438 2.0228125 6.08046875 1.390625 4.8984375 C0 2 0 2 0 0 Z " fill="#86BC47" transform="translate(127,306)"/>
<path d="M0 0 C1.78567383 -0.01836914 1.78567383 -0.01836914 3.60742188 -0.03710938 C11.68661403 -0.05028913 19.36840124 0.72496382 27.3125 2.1875 C23.22352627 4.50521322 20.95432512 3.99436122 16.3125 3.1875 C13.27480737 2.90711865 10.23304619 2.73422234 7.1875 2.5625 C6.40246094 2.5109375 5.61742187 2.459375 4.80859375 2.40625 C0.72378714 2.17204524 -2.67011659 2.36854704 -6.6875 3.1875 C-9.31449871 3.10310937 -11.88556064 2.96766146 -14.5 2.75 C-15.53930664 2.67168945 -15.53930664 2.67168945 -16.59960938 2.59179688 C-18.29604437 2.46310181 -19.99184863 2.32613816 -21.6875 2.1875 C-21.6875 1.8575 -21.6875 1.5275 -21.6875 1.1875 C-14.45337949 0.06418936 -7.31169918 0.00389542 0 0 Z " fill="#8EC151" transform="translate(249.6875,114.8125)"/>
<path d="M0 0 C0.99 0 1.98 0 3 0 C3.33 1.32 3.66 2.64 4 4 C5.7015625 3.2575 5.7015625 3.2575 7.4375 2.5 C11 1 11 1 12 1 C13.125 7.75 13.125 7.75 12 10 C7.48279689 10.36625971 7.48279689 10.36625971 5.1875 8.625 C4 7 4 7 4 5 C2.68 4.34 1.36 3.68 0 3 C0 2.01 0 1.02 0 0 Z " fill="#84CC33" transform="translate(174,356)"/>
<path d="M0 0 C0.99 2.64 1.98 5.28 3 8 C2.01 8.495 2.01 8.495 1 9 C0.59270772 11.32156597 0.25561323 13.6568787 0 16 C-0.66 15.34 -1.32 14.68 -2 14 C-2 13.01 -2 12.02 -2 11 C-3.32 11.33 -4.64 11.66 -6 12 C-6 10.35 -6 8.7 -6 7 C-5.34 7 -4.68 7 -4 7 C-4 5.02 -4 3.04 -4 1 C-2 0 -2 0 0 0 Z " fill="#81CA34" transform="translate(258,287)"/>
<path d="M0 0 C4.95 2.31 9.9 4.62 15 7 C11.34475772 8.21841409 11.23784337 7.61892168 8 6 C5.33290931 5.83249586 5.33290931 5.83249586 3 6 C2.67 6.99 2.34 7.98 2 9 C3.2065625 9.6496875 3.2065625 9.6496875 4.4375 10.3125 C7 12 7 12 8 15 C3.1725201 13.58707905 -0.7162359 11.57025846 -5 9 C-5 8.67 -5 8.34 -5 8 C-3.35 8 -1.7 8 0 8 C0 5.36 0 2.72 0 0 Z " fill="#89C348" transform="translate(186,358)"/>
<path d="M0 0 C2.33965571 2.22723982 4.27099166 4.58956647 6.1875 7.1875 C6.71730469 7.90292969 7.24710938 8.61835938 7.79296875 9.35546875 C8.39044922 10.16951172 8.39044922 10.16951172 9 11 C6.5625 10.1875 6.5625 10.1875 4 9 C3.67 8.01 3.34 7.02 3 6 C2.01 6 1.02 6 0 6 C-0.33 13.59 -0.66 21.18 -1 29 C-1.33 29 -1.66 29 -2 29 C-2.05874776 25.66674246 -2.09384467 22.33362062 -2.125 19 C-2.14175781 18.06542969 -2.15851563 17.13085938 -2.17578125 16.16796875 C-2.21606145 10.40790037 -1.65416655 5.5225718 0 0 Z " fill="#8ABD4F" transform="translate(169,175)"/>
<path d="M0 0 C0.66 0.33 1.32 0.66 2 1 C2 1.66 2 2.32 2 3 C0.02 3.33 -1.96 3.66 -4 4 C-3.67 4.99 -3.34 5.98 -3 7 C-3.33 7.66 -3.66 8.32 -4 9 C-4.58265625 8.78472656 -5.1653125 8.56945312 -5.765625 8.34765625 C-8.02188446 7.77110902 -8.02188446 7.77110902 -9.921875 8.99609375 C-10.52515625 9.47175781 -11.1284375 9.94742188 -11.75 10.4375 C-12.36359375 10.91058594 -12.9771875 11.38367188 -13.609375 11.87109375 C-14.29773438 12.42990234 -14.29773438 12.42990234 -15 13 C-15.99 12.34 -16.98 11.68 -18 11 C-4.41473988 2.25433526 -4.41473988 2.25433526 0 0 Z " fill="#89C143" transform="translate(190,128)"/>
<path d="M0 0 C0.33 0.66 0.66 1.32 1 2 C0.67 2.99 0.34 3.98 0 5 C-0.66 5 -1.32 5 -2 5 C-2 6.32 -2 7.64 -2 9 C-1.34 9.33 -0.68 9.66 0 10 C-0.7425 10.70125 -1.485 11.4025 -2.25 12.125 C-5.71317431 15.74559133 -8.4078457 19.22353711 -10 24 C-10.66 24 -11.32 24 -12 24 C-9.84073124 16.17265075 -5.8870549 5.8870549 0 0 Z " fill="#88BF48" transform="translate(137,175)"/>
<path d="M0 0 C0.66 0.33 1.32 0.66 2 1 C1.5875 1.38929688 1.175 1.77859375 0.75 2.1796875 C-4.31859519 7.08988909 -8.68198982 12.42584141 -13 18 C-13 14.74188938 -12.4477922 12.89558441 -11 10 C-10.01 9.67 -9.02 9.34 -8 9 C-8.33 8.01 -8.66 7.02 -9 6 C-8.67 5.01 -8.34 4.02 -8 3 C-7.01 2.67 -6.02 2.34 -5 2 C-5 2.66 -5 3.32 -5 4 C-4.34 4 -3.68 4 -3 4 C-3 3.01 -3 2.02 -3 1 C-2.01 0.67 -1.02 0.34 0 0 Z " fill="#89C141" transform="translate(163,157)"/>
<path d="M0 0 C2.0625 0.4375 2.0625 0.4375 4 1 C4 1.99 4 2.98 4 4 C5.43750191 5.68798827 5.43750191 5.68798827 7 7 C5 10 5 10 1.875 10.6875 C0.92625 10.790625 -0.0225 10.89375 -1 11 C-1.02688151 9.35425434 -1.04634123 7.70838587 -1.0625 6.0625 C-1.07410156 5.14597656 -1.08570313 4.22945313 -1.09765625 3.28515625 C-1 1 -1 1 0 0 Z " fill="#7DC03B" transform="translate(281,371)"/>
<path d="M0 0 C1.09570312 0.28746094 2.19140625 0.57492188 3.3203125 0.87109375 C4.16335938 1.09925781 5.00640625 1.32742187 5.875 1.5625 C5.875 1.8925 5.875 2.2225 5.875 2.5625 C2.575 2.2325 -0.725 1.9025 -4.125 1.5625 C-4.455 2.5525 -4.785 3.5425 -5.125 4.5625 C-6.115 5.2225 -7.105 5.8825 -8.125 6.5625 C-7.795 7.2225 -7.465 7.8825 -7.125 8.5625 C-10.755 8.2325 -14.385 7.9025 -18.125 7.5625 C-18.125 7.2325 -18.125 6.9025 -18.125 6.5625 C-17.17625 6.459375 -16.2275 6.35625 -15.25 6.25 C-11.83392499 5.87710705 -11.83392499 5.87710705 -10.125 2.5625 C-9.465 2.5625 -8.805 2.5625 -8.125 2.5625 C-8.125 1.5725 -8.125 0.5825 -8.125 -0.4375 C-5.13816063 -1.93091969 -3.17339022 -0.84398676 0 0 Z " fill="#8BC545" transform="translate(283.125,118.4375)"/>
<path d="M0 0 C0.66 0 1.32 0 2 0 C2.9765625 6.0546875 2.9765625 6.0546875 3 8 C2.34 8.66 1.68 9.32 1 10 C1 9.34 1 8.68 1 8 C-0.65 8 -2.3 8 -4 8 C-4 8.66 -4 9.32 -4 10 C-9.45769231 13.10096154 -9.45769231 13.10096154 -12.203125 12.58984375 C-12.79609375 12.39519531 -13.3890625 12.20054687 -14 12 C-13.39671875 11.68546875 -12.7934375 11.3709375 -12.171875 11.046875 C-4.43083868 7.1096658 -4.43083868 7.1096658 0 0 Z " fill="#88BE4B" transform="translate(352,200)"/>
<path d="M0 0 C0.99 0.66 1.98 1.32 3 2 C-6.22551253 13.70615034 -6.22551253 13.70615034 -12 18 C-12 16.68 -12 15.36 -12 14 C-11.01 14 -10.02 14 -9 14 C-8.67 13.01 -8.34 12.02 -8 11 C-7.34 10.34 -6.68 9.68 -6 9 C-6.66 8.67 -7.32 8.34 -8 8 C-7.34 8 -6.68 8 -6 8 C-6 7.34 -6 6.68 -6 6 C-4.35 5.67 -2.7 5.34 -1 5 C-0.67 3.35 -0.34 1.7 0 0 Z " fill="#85BB45" transform="translate(354,331)"/>
<path d="M0 0 C5.96367543 -0.35782053 9.69210489 0.014309 15 3 C17.33558026 3.77455468 19.68098782 4.48028223 22.046875 5.15625 C24 6 24 6 26 9 C24.865625 8.608125 23.73125 8.21625 22.5625 7.8125 C15.11080176 5.32061377 7.54416296 3.19135847 0 1 C0 0.67 0 0.34 0 0 Z " fill="#8CBF4D" transform="translate(277,127)"/>
<path d="M0 0 C1.98953324 1.98953324 2.97746933 3.40434522 4 6 C2.70647196 9.88058411 0.6723379 11.9165332 -2 15 C-2.66 14.67 -3.32 14.34 -4 14 C-2.68 9.38 -1.36 4.76 0 0 Z " fill="#84C441" transform="translate(372,277)"/>
<path d="M0 0 C0.66 0.33 1.32 0.66 2 1 C-3.31926121 6.76253298 -3.31926121 6.76253298 -7 7 C-9.25 6.5625 -9.25 6.5625 -11 6 C-11 6.66 -11 7.32 -11 8 C-12.8125 8.625 -12.8125 8.625 -15 9 C-15.99 8.34 -16.98 7.68 -18 7 C-16.86820312 6.57847656 -15.73640625 6.15695312 -14.5703125 5.72265625 C-13.08852006 5.16932869 -11.60675041 4.61594011 -10.125 4.0625 C-9.37863281 3.78470703 -8.63226563 3.50691406 -7.86328125 3.22070312 C-3.87275485 1.74900806 -3.87275485 1.74900806 0 0 Z " fill="#8AC044" transform="translate(303,363)"/>
<path d="M0 0 C1.32830615 3.98491845 0.23204404 5.40048548 -1.4375 9.1875 C-1.91058594 10.27417969 -2.38367188 11.36085938 -2.87109375 12.48046875 C-3.24363281 13.31191406 -3.61617188 14.14335937 -4 15 C-4.66 15 -5.32 15 -6 15 C-6.33 16.32 -6.66 17.64 -7 19 C-7.66 19 -8.32 19 -9 19 C-7.39369175 14.75707468 -5.4231838 10.72974893 -3.375 6.6875 C-3.05015625 6.04232422 -2.7253125 5.39714844 -2.390625 4.73242188 C-1.59558044 3.15402459 -0.79804366 1.57688306 0 0 Z " fill="#86BE46" transform="translate(365,299)"/>
<path d="M0 0 C1.61605109 6.46420436 -0.36964336 10.24093491 -3.625 15.75 C-4.305625 16.86375 -4.305625 16.86375 -5 18 C-5.66 17.67 -6.32 17.34 -7 17 C-4.69 11.39 -2.38 5.78 0 0 Z " fill="#8DB650" transform="translate(292,273)"/>
<path d="M0 0 C2.06547922 3.09821883 3.56243611 6.18449352 5.125 9.5625 C5.66382813 10.71878906 6.20265625 11.87507813 6.7578125 13.06640625 C8 16 8 16 8 18 C7.34 18 6.68 18 6 18 C5.32845067 16.71086513 4.66291141 15.41859796 4 14.125 C3.62875 13.40570313 3.2575 12.68640625 2.875 11.9453125 C2 10 2 10 2 8 C1.01 7.67 0.02 7.34 -1 7 C-0.67 4.69 -0.34 2.38 0 0 Z " fill="#89BF43" transform="translate(131,291)"/>
<path d="M0 0 C6.26480445 1.74732641 10.88233868 3.97120279 16 8 C14.68 8.33 13.36 8.66 12 9 C12 8.34 12 7.68 12 7 C11.030625 6.87625 10.06125 6.7525 9.0625 6.625 C8.051875 6.41875 7.04125 6.2125 6 6 C5.67 5.34 5.34 4.68 5 4 C2.47266765 3.34444881 2.47266765 3.34444881 0 3 C0 2.01 0 1.02 0 0 Z " fill="#91C445" transform="translate(240,206)"/>
<path d="M0 0 C5.28 1.32 10.56 2.64 16 4 C16 4.66 16 5.32 16 6 C15.22914063 5.91621094 14.45828125 5.83242187 13.6640625 5.74609375 C12.66117188 5.64425781 11.65828125 5.54242188 10.625 5.4375 C9.62726563 5.33308594 8.62953125 5.22867188 7.6015625 5.12109375 C5.015963 4.78855292 5.015963 4.78855292 3 6 C2.67 5.01 2.34 4.02 2 3 C1.34 2.67 0.68 2.34 0 2 C0 1.34 0 0.68 0 0 Z " fill="#89C146" transform="translate(193,193)"/>
<path d="M0 0 C0.33 1.32 0.66 2.64 1 4 C0.01 4.495 0.01 4.495 -1 5 C-1 5.99 -1 6.98 -1 8 C-5.75 7.25 -5.75 7.25 -8 5 C-7.01 4.67 -6.02 4.34 -5 4 C-4.67 3.01 -4.34 2.02 -4 1 C-1.9375 0.3125 -1.9375 0.3125 0 0 Z " fill="#89CB31" transform="translate(307,127)"/>
<path d="M0 0 C0.2475 0.61875 0.495 1.2375 0.75 1.875 C2.20628639 4.35068687 3.37812506 4.95125002 6 6 C6 9.61029169 5.03907418 12.55806676 4 16 C0.78235549 11.17353323 -0.36261136 5.80178176 0 0 Z " fill="#8AC147" transform="translate(168,205)"/>
<path d="M0 0 C2.97 0.99 5.94 1.98 9 3 C9 4.32 9 5.64 9 7 C10.32 7.66 11.64 8.32 13 9 C9.23660802 9 8.27456755 7.93898713 5.375 5.625 C4.57835937 4.99851562 3.78171875 4.37203125 2.9609375 3.7265625 C1 2 1 2 0 0 Z " fill="#88BA4D" transform="translate(162,352)"/>
<path d="M0 0 C2.475 0.99 2.475 0.99 5 2 C5 2.66 5 3.32 5 4 C3.03852126 5.38938077 1.03833424 6.7260411 -1 8 C-1.66 7.67 -2.32 7.34 -3 7 C-1.125 1.125 -1.125 1.125 0 0 Z " fill="#88CC33" transform="translate(368,194)"/>
<path d="M0 0 C2.31 0 4.62 0 7 0 C3.27074217 3.2428329 -1.30238735 5.5119901 -6 7 C-6.99 6.67 -7.98 6.34 -9 6 C-8.67 5.34 -8.34 4.68 -8 4 C-5.35139573 3.40644386 -2.70802678 3.25790731 0 3 C0 2.01 0 1.02 0 0 Z " fill="#89C147" transform="translate(318,265)"/>
<path d="M0 0 C1.32 1.32 2.64 2.64 4 4 C3.34 5.65 2.68 7.3 2 9 C0.68 8.67 -0.64 8.34 -2 8 C-1.34 7.67 -0.68 7.34 0 7 C-0.66 5.68 -1.32 4.36 -2 3 C-1.34 2.01 -0.68 1.02 0 0 Z " fill="#87CB32" transform="translate(261,306)"/>
<path d="M0 0 C1.32 0.33 2.64 0.66 4 1 C4.12375 1.804375 4.2475 2.60875 4.375 3.4375 C4.684375 4.7059375 4.684375 4.7059375 5 6 C5.66 6.33 6.32 6.66 7 7 C7 8.98 7 10.96 7 13 C3.67006966 9.17058011 1.94675475 4.62477778 0 0 Z " fill="#87BF4B" transform="translate(359,188)"/>
<path d="M0 0 C0.99 0.33 1.98 0.66 3 1 C3.33 2.65 3.66 4.3 4 6 C1.125 6.1875 1.125 6.1875 -2 6 C-2.66 5.01 -3.32 4.02 -4 3 C-2.68 2.67 -1.36 2.34 0 2 C0 1.34 0 0.68 0 0 Z " fill="#81CB32" transform="translate(362,179)"/>
<path d="M0 0 C0 0.99 0 1.98 0 3 C0.99 3.33 1.98 3.66 3 4 C2.34 5.32 1.68 6.64 1 8 C-0.98 7.34 -2.96 6.68 -5 6 C-3.35 4.02 -1.7 2.04 0 0 Z " fill="#87C53E" transform="translate(341,336)"/>
<path d="M0 0 C0.99 0.33 1.98 0.66 3 1 C1.02 4.96 -0.96 8.92 -3 13 C-3.33 13 -3.66 13 -4 13 C-4 11.02 -4 9.04 -4 7 C-3.34 6.67 -2.68 6.34 -2 6 C-1.27306096 4.02111039 -0.60183749 2.02045442 0 0 Z " fill="#8AB950" transform="translate(139,186)"/>
<path d="M0 0 C3.24174651 2.16116434 4.04784342 3.72037695 6 7 C7.29579647 8.36984198 8.61992749 9.7151049 10 11 C9.67 11.66 9.34 12.32 9 13 C5.08552441 9.27856704 1.50346649 5.85967024 -1 1 C-0.67 0.67 -0.34 0.34 0 0 Z " fill="#85B849" transform="translate(146,334)"/>
<path d="M0 0 C1.1875 1.5625 1.1875 1.5625 2 4 C0.625 7.75 0.625 7.75 -1 11 C-1.66 10.67 -2.32 10.34 -3 10 C-2.39009109 6.44219804 -1.4216319 3.3171411 0 0 Z " fill="#8CCE32" transform="translate(294,272)"/>
<path d="M0 0 C0.66 0.99 1.32 1.98 2 3 C-1.625 9.875 -1.625 9.875 -5 11 C-3.77472971 6.94718288 -2.30119506 3.55639236 0 0 Z " fill="#8CC142" transform="translate(298,262)"/>
<path d="M0 0 C1.45606519 4.52092968 0.27032841 7.51648796 -1 12 C-1.99 11.67 -2.98 11.34 -4 11 C-3.5247412 9.35303396 -3.04468109 7.70745272 -2.5625 6.0625 C-2.29566406 5.14597656 -2.02882813 4.22945312 -1.75390625 3.28515625 C-1 1 -1 1 0 0 Z " fill="#87C441" transform="translate(128,215)"/>
<path d="M0 0 C2.09715785 3.14573677 2.52004559 5.01456251 3.125 8.6875 C3.29257812 9.68136719 3.46015625 10.67523438 3.6328125 11.69921875 C3.75398438 12.45847656 3.87515625 13.21773438 4 14 C2 13 2 13 0.875 10.9375 C-0.2583306 7.13274727 -0.13434296 3.9631172 0 0 Z " fill="#87B94C" transform="translate(267,316)"/>
<path d="M0 0 C2.64 0.33 5.28 0.66 8 1 C5.3139714 2.79068573 3.3373411 3.66055791 0.3125 4.625 C-0.49574219 4.88539063 -1.30398437 5.14578125 -2.13671875 5.4140625 C-2.75160156 5.60742188 -3.36648437 5.80078125 -4 6 C-3.525625 5.38125 -3.05125 4.7625 -2.5625 4.125 C-0.97582559 2.09294454 -0.97582559 2.09294454 0 0 Z " fill="#87BF47" transform="translate(201,130)"/>
<path d="M0 0 C3.26008643 3.16952847 6.22237877 6.39937989 9 10 C5.17647894 8.4422692 2.70794407 6.08404742 0 3 C0 2.01 0 1.02 0 0 Z " fill="#83B54B" transform="translate(148,324)"/>
<path d="M0 0 C-4.455 2.97 -4.455 2.97 -9 6 C-9.33 5.34 -9.66 4.68 -10 4 C-9.34 4 -8.68 4 -8 4 C-7.67 3.01 -7.34 2.02 -7 1 C-4.05697101 -0.96201933 -3.48011144 -1.16003715 0 0 Z " fill="#9DC640" transform="translate(339,257)"/>
<path d="M0 0 C8.03571429 0.80357143 8.03571429 0.80357143 12 3 C10.37581255 3.08090971 8.75048255 3.13914995 7.125 3.1875 C5.76761719 3.23970703 5.76761719 3.23970703 4.3828125 3.29296875 C3.20332031 3.14794922 3.20332031 3.14794922 2 3 C1.34 2.01 0.68 1.02 0 0 Z " fill="#8BBF4B" transform="translate(210,198)"/>
<path d="M0 0 C3.34373475 0.55728913 6.03312999 1.35173889 9 3 C9 3.66 9 4.32 9 5 C6.03 4.01 3.06 3.02 0 2 C0 1.34 0 0.68 0 0 Z " fill="#8ABE4B" transform="translate(195,372)"/>
<path d="M0 0 C2.64465038 3.1254959 3.84414715 6.08788267 5 10 C3.68 9.67 2.36 9.34 1 9 C1.33 7.68 1.66 6.36 2 5 C1.34 5 0.68 5 0 5 C0 3.35 0 1.7 0 0 Z " fill="#84B844" transform="translate(251,274)"/>
<path d="M0 0 C0.99 0.33 1.98 0.66 3 1 C2.67 2.65 2.34 4.3 2 6 C2.66 6 3.32 6 4 6 C4 7.32 4 8.64 4 10 C3.34 10 2.68 10 2 10 C1.34 6.7 0.68 3.4 0 0 Z " fill="#91C047" transform="translate(279,276)"/>
<path d="M0 0 C5.57142857 5.14285714 5.57142857 5.14285714 6 9 C3.5625 7.875 3.5625 7.875 1 6 C0.1875 2.8125 0.1875 2.8125 0 0 Z " fill="#8BBE4D" transform="translate(264,223)"/>
<path d="M0 0 C0.66 0.33 1.32 0.66 2 1 C0.875 3.4375 0.875 3.4375 -1 6 C-4.1875 6.8125 -4.1875 6.8125 -7 7 C-4.66666667 4.66666667 -2.33333333 2.33333333 0 0 Z " fill="#87B54C" transform="translate(170,140)"/>
<path d="M0 0 C-1.28913487 0.67154933 -2.58140204 1.33708859 -3.875 2 C-4.59429687 2.37125 -5.31359375 2.7425 -6.0546875 3.125 C-8 4 -8 4 -10 4 C-9.67 2.68 -9.34 1.36 -9 0 C-5.5657338 -0.85856655 -3.38317487 -0.97591583 0 0 Z " fill="#88BD4D" transform="translate(197,137)"/>
<path d="M0 0 C0 0.66 0 1.32 0 2 C0.66 2 1.32 2 2 2 C2 2.66 2 3.32 2 4 C1.34 4 0.68 4 0 4 C-0.33 5.32 -0.66 6.64 -1 8 C-1.103125 7.38125 -1.20625 6.7625 -1.3125 6.125 C-1.87525373 3.63473516 -1.87525373 3.63473516 -5 2 C-2 0 -2 0 0 0 Z " fill="#7FCA32" transform="translate(212,122)"/>
<path d="M0 0 C2.31 0 4.62 0 7 0 C7 0.66 7 1.32 7 2 C6.34 2 5.68 2 5 2 C5.66 3.65 6.32 5.3 7 7 C5.83040013 6.02433888 4.66438823 5.044375 3.5 4.0625 C2.8503125 3.51722656 2.200625 2.97195313 1.53125 2.41015625 C1.0259375 1.94480469 0.520625 1.47945313 0 1 C0 0.67 0 0.34 0 0 Z " fill="#8AC04C" transform="translate(240,283)"/>
<path d="M0 0 C1.32 0.99 2.64 1.98 4 3 C3.01 3.495 3.01 3.495 2 4 C1.01 5.485 1.01 5.485 0 7 C-0.66 5.02 -1.32 3.04 -2 1 C-1.34 0.67 -0.68 0.34 0 0 Z " fill="#82CB30" transform="translate(375,276)"/>
<path d="M0 0 C2.79872437 2.52788007 4.45773019 4.20411134 5 8 C4.01 8.33 3.02 8.66 2 9 C1.34 8.34 0.68 7.68 0 7 C0.30271961 5.65938457 0.63837971 4.32594105 1 3 C0.67 2.01 0.34 1.02 0 0 Z " fill="#82C13D" transform="translate(233,245)"/>
<path d="M0 0 C2.76276177 0.52268466 5.3260876 1.10869587 8 2 C8.33 2.99 8.66 3.98 9 5 C5.22454612 3.90931332 2.52956528 3.0916909 0 0 Z " fill="#87B74F" transform="translate(185,368)"/>
<path d="M0 0 C0.66 0.33 1.32 0.66 2 1 C1.38125 1.2475 0.7625 1.495 0.125 1.75 C-2.35068687 3.20628639 -2.95125002 4.37812506 -4 7 C-4.99 6.34 -5.98 5.68 -7 5 C-4.69 3.35 -2.38 1.7 0 0 Z " fill="#88B54C" transform="translate(179,134)"/>
<path d="M0 0 C-5.75 4 -5.75 4 -8 4 C-7.25 2.0625 -7.25 2.0625 -6 0 C-3.40292416 -1.05506206 -2.5386068 -1.2693034 0 0 Z " fill="#87BC47" transform="translate(328,361)"/>
<path d="M0 0 C0.99 0.33 1.98 0.66 3 1 C2.34 2.32 1.68 3.64 1 5 C0.01 5 -0.98 5 -2 5 C-1.125 1.125 -1.125 1.125 0 0 Z " fill="#7ECD2E" transform="translate(127,293)"/>
<path d="M0 0 C1.32 0.66 2.64 1.32 4 2 C2.02 3.32 0.04 4.64 -2 6 C-1.125 1.125 -1.125 1.125 0 0 Z " fill="#7EBE47" transform="translate(296,275)"/>
<path d="M0 0 C1.98 0 3.96 0 6 0 C6.33 1.32 6.66 2.64 7 4 C4.97954558 3.39816251 2.97888961 2.72693904 1 2 C0.67 1.34 0.34 0.68 0 0 Z " fill="#8ABE4B" transform="translate(215,267)"/>
<path d="M0 0 C0.99 0.66 1.98 1.32 3 2 C2.67 2.66 2.34 3.32 2 4 C-0.5625 4.625 -0.5625 4.625 -3 5 C-1.125 1.125 -1.125 1.125 0 0 Z " fill="#86C542" transform="translate(307,250)"/>
<path d="M0 0 C0.99 0.33 1.98 0.66 3 1 C1.02 3.97 1.02 3.97 -1 7 C-2 4 -2 4 -1.0625 1.8125 C-0.5365625 0.9153125 -0.5365625 0.9153125 0 0 Z " fill="#88BB4F" transform="translate(347,242)"/>
</svg>
